<?xml version="1.0" standalone="no"?>
<!DOCTYPE svg PUBLIC "-//W3C//DTD SVG 20010904//EN"
 "http://www.w3.org/TR/2001/REC-SVG-20010904/DTD/svg10.dtd">
<svg version="1.0" xmlns="http://www.w3.org/2000/svg"
 width="500.000000pt" height="300.000000pt" viewBox="0 0 500.000000 300.000000"
 preserveAspectRatio="xMidYMid meet">

<g transform="translate(0.000000,300.000000) scale(0.100000,-0.100000)"
fill="#000000" stroke="none">
<path d="M382 1958 c-38 -23 -78 -87 -87 -140 l-7 -38 -91 0 -90 0 7 -152 c18
-430 17 -420 42 -445 23 -23 24 -23 301 -23 153 0 288 3 300 6 39 11 50 57 57
244 3 96 9 219 13 273 l6 97 -90 0 -91 0 -11 46 c-25 99 -90 155 -177 153 -30
0 -61 -8 -82 -21z m154 -43 c27 -17 64 -84 64 -115 0 -19 -6 -20 -131 -20
l-132 0 6 36 c17 101 114 151 193 99z m22 -252 c28 -13 31 -18 20 -29 -11 -11
-22 -11 -63 1 -82 25 -136 -6 -123 -72 2 -11 34 -33 87 -59 98 -47 121 -71
121 -125 0 -78 -70 -120 -172 -105 -54 8 -109 49 -91 67 10 10 20 9 52 -9 76
-43 171 -17 171 48 0 36 -29 60 -109 90 -76 28 -106 59 -106 110 0 92 106 134
213 83z"/>
<path d="M1207 1843 c-11 -11 -8 -601 3 -608 7 -4 10 100 10 304 0 171 -1 311
-3 311 -2 0 -7 -3 -10 -7z"/>
<path d="M1635 1752 c-73 -35 -96 -117 -52 -183 17 -25 41 -41 99 -64 97 -38
128 -64 128 -107 0 -38 -6 -48 -40 -71 -37 -26 -90 -21 -159 15 -51 26 -64 29
-71 18 -14 -23 8 -50 63 -76 129 -59 260 -4 260 110 0 75 -39 114 -156 158
-92 34 -120 86 -72 133 30 30 96 34 150 8 63 -30 77 20 15 52 -50 26 -119 29
-165 7z"/>
<path d="M1916 1745 c-9 -25 -7 -458 3 -473 5 -8 17 -12 27 -10 17 3 20 16 24
107 5 93 7 105 29 122 13 10 38 19 56 19 18 0 43 -9 56 -19 22 -17 24 -29 29
-123 5 -97 6 -103 28 -106 22 -3 22 -2 22 111 0 102 -2 117 -22 142 -39 50
-116 69 -170 41 l-27 -14 -3 106 c-3 100 -4 107 -24 110 -13 2 -24 -4 -28 -13z"/>
<path d="M3772 1728 c-9 -9 -12 -75 -12 -235 0 -190 2 -224 15 -229 8 -4 22
-1 30 6 12 10 15 46 15 196 l0 183 49 -33 c82 -56 156 -54 237 4 l44 31 0
-191 c0 -161 2 -192 15 -196 8 -4 22 -1 30 6 23 19 22 432 -1 455 -21 20 -50
11 -87 -27 -40 -42 -87 -68 -122 -68 -26 0 -90 30 -105 49 -14 18 -73 61 -84
61 -6 0 -17 -5 -24 -12z"/>
<path d="M4617 1734 c-4 -4 -7 -93 -7 -197 0 -211 8 -245 61 -268 26 -10 33
-10 47 5 15 15 14 18 -16 43 l-32 28 -3 195 c-2 188 -3 195 -22 198 -12 2 -24
0 -28 -4z"/>
<path d="M4760 1532 c0 -195 1 -211 20 -235 24 -31 78 -46 91 -26 14 22 11 26
-26 48 l-35 20 -2 198 c-3 197 -3 198 -25 201 l-23 3 0 -209z"/>
<path d="M2332 1553 c-96 -47 -115 -172 -38 -249 79 -79 225 -41 257 66 39
128 -98 243 -219 183z m132 -59 c37 -24 51 -74 32 -117 -30 -72 -120 -86 -170
-26 -44 51 -32 113 27 150 35 22 71 20 111 -7z"/>
<path d="M2617 1563 c-4 -3 -7 -109 -7 -234 0 -231 2 -244 38 -232 8 3 12 32
12 99 0 52 2 94 5 94 4 0 20 -7 37 -16 42 -22 117 -14 154 15 92 72 81 211
-19 260 -51 25 -85 26 -133 6 -32 -13 -37 -13 -51 0 -16 16 -26 19 -36 8z
m199 -62 c66 -40 68 -125 5 -168 -42 -28 -66 -29 -109 -3 -66 41 -68 123 -3
167 41 28 66 29 107 4z"/>
<path d="M3051 1552 c-50 -25 -74 -63 -78 -124 -5 -61 16 -110 59 -141 58 -43
208 -27 208 22 0 26 -18 31 -57 14 -18 -7 -45 -13 -60 -13 -35 0 -93 34 -93
55 0 8 -1 18 -2 23 -2 4 47 9 107 12 l110 5 -1 42 c-1 52 -26 90 -69 109 -46
19 -83 18 -124 -4z m102 -43 c25 -14 37 -28 37 -46 0 -9 -23 -13 -80 -13 -44
0 -80 4 -80 9 0 16 61 61 81 61 11 0 30 -5 42 -11z"/>
<path d="M3380 1552 c-47 -23 -74 -73 -74 -136 -1 -93 46 -146 136 -154 72 -6
131 18 126 50 -3 25 -10 26 -74 7 -22 -7 -51 -9 -65 -6 -33 8 -69 43 -69 67 0
19 7 20 111 20 l112 0 -5 50 c-6 56 -26 86 -75 106 -43 19 -81 18 -123 -4z
m109 -47 c26 -13 47 -42 37 -52 -2 -2 -41 -3 -87 -1 l-84 3 32 33 c35 35 59
40 102 17z"/>
<path d="M4345 1555 c-43 -20 -60 -36 -78 -72 -34 -65 -14 -149 45 -193 42
-31 115 -38 159 -16 29 15 34 15 41 1 12 -20 44 -19 52 1 8 20 8 248 0 268 -8
20 -43 21 -50 2 -4 -11 -12 -10 -42 5 -43 22 -86 24 -127 4z m100 -49 c34 -14
65 -59 65 -93 0 -31 -36 -79 -69 -92 -39 -17 -76 -7 -112 29 -48 48 -34 120
31 152 42 22 42 22 85 4z"/>
</g>
</svg>
